<?xml version="1.0" standalone="no"?>
<!DOCTYPE svg PUBLIC "-//W3C//DTD SVG 20010904//EN"
 "http://www.w3.org/TR/2001/REC-SVG-20010904/DTD/svg10.dtd">
<svg version="1.0" xmlns="http://www.w3.org/2000/svg"
 width="1074.000000pt" height="232.000000pt" viewBox="0 0 1074.000000 232.000000"
 preserveAspectRatio="xMidYMid meet">

<g transform="translate(0.000000,232.000000) scale(0.100000,-0.100000)"
fill="#000000" stroke="none">
<path d="M9607 1732 c-141 -142 -257 -262 -257 -268 0 -15 108 -116 120 -112
5 2 94 87 198 191 115 114 196 187 208 187 12 0 93 -74 209 -190 104 -104 195
-190 200 -190 13 0 115 102 115 115 0 13 -512 525 -525 525 -6 0 -126 -116
-268 -258z"/>
<path d="M8203 1842 l-163 -2 0 -78 c0 -42 5 -84 10 -92 7 -12 37 -16 135 -18
134 -4 133 -3 116 -58 -84 -259 -220 -678 -243 -744 -61 -177 -69 -213 -66
-312 l3 -93 265 0 265 0 3 92 3 93 -161 0 c-123 0 -162 3 -166 13 -2 7 32 121
76 253 127 376 212 633 231 704 21 78 26 229 7 235 -23 7 -150 10 -315 7z"/>
<path d="M8662 1842 l-22 -3 2 -697 3 -697 230 0 230 0 3 65 c2 36 0 79 -3 97
l-6 32 -127 3 -127 3 0 200 0 200 83 -4 c49 -2 87 1 95 8 18 14 12 191 -6 203
-6 4 -49 8 -95 8 l-82 0 2 193 3 192 133 3 134 3 -4 88 c-1 49 -5 91 -8 94 -6
6 -404 14 -438 9z"/>
<path d="M402 1143 l3 -698 90 0 90 0 3 674 c2 591 0 677 -13 698 -14 21 -23
23 -95 23 l-80 0 2 -697z"/>
<path d="M766 1825 c-3 -9 -6 -322 -6 -695 0 -609 2 -678 16 -684 28 -11 140
-6 152 6 9 9 12 112 12 401 0 306 3 388 13 385 12 -4 46 -109 88 -273 12 -44
29 -111 39 -150 10 -38 30 -113 45 -165 15 -52 31 -113 37 -135 16 -60 28 -67
112 -73 60 -4 76 -2 76 9 5 176 7 1333 3 1357 l-5 32 -78 0 c-62 0 -79 -3 -84
-16 -3 -9 -6 -186 -6 -394 0 -223 -4 -381 -9 -385 -14 -8 -24 11 -42 80 -9 33
-25 92 -36 130 -11 39 -41 150 -67 247 -25 97 -59 212 -74 255 l-27 78 -76 3
c-63 2 -78 0 -83 -13z"/>
<path d="M1457 1833 c-10 -9 -8 -155 1 -170 5 -8 41 -13 97 -15 l90 -3 5 -593
c4 -512 7 -594 20 -602 20 -13 157 -13 165 0 3 5 5 270 5 588 0 319 3 587 6
596 5 13 22 16 84 16 113 0 110 -3 110 101 l0 89 -288 0 c-159 0 -292 -3 -295
-7z"/>
<path d="M2140 1150 c0 -671 1 -690 19 -700 12 -6 101 -10 219 -10 164 0 202
3 212 15 13 16 11 158 -3 172 -5 4 -63 10 -130 13 l-122 5 -3 194 c-2 149 1
196 10 203 7 4 50 8 96 8 l82 0 0 85 c0 77 -2 86 -23 100 -13 8 -54 18 -92 22
l-70 8 -3 170 c-1 94 0 180 3 193 5 21 9 22 129 22 142 0 136 -4 136 95 0 103
19 95 -236 95 l-224 0 0 -690z"/>
<path d="M2741 1822 c-8 -14 -11 -229 -11 -690 0 -562 2 -671 14 -681 9 -8 45
-11 98 -9 l83 3 3 298 2 298 32 -3 c37 -4 37 -5 67 -168 11 -63 32 -182 47
-265 14 -82 28 -153 31 -158 2 -4 42 -7 89 -7 69 0 86 3 91 16 3 9 -17 134
-45 278 -84 427 -79 383 -49 414 14 15 38 54 54 87 27 58 28 66 27 215 0 145
-2 158 -26 210 -28 61 -83 117 -150 152 -38 20 -60 23 -195 26 -144 4 -152 3
-162 -16z m283 -193 c51 -40 70 -94 70 -194 0 -72 -4 -98 -21 -130 -29 -55
-55 -76 -102 -82 l-41 -6 0 217 0 216 34 0 c19 0 45 -9 60 -21z"/>
<path d="M3402 1828 c-7 -7 -12 -26 -12 -43 0 -46 40 -323 85 -595 8 -47 26
-164 40 -260 46 -310 73 -462 84 -473 5 -5 47 -10 93 -11 l83 -1 12 50 c7 28
28 160 47 295 20 135 40 270 46 300 6 30 20 109 30 175 10 66 31 199 46 295
15 96 28 198 28 225 l1 50 -77 3 c-68 2 -78 1 -87 -17 -11 -20 -37 -178 -66
-401 -32 -250 -45 -346 -50 -377 -9 -50 -31 -41 -39 15 -35 265 -47 360 -65
502 -25 199 -34 233 -68 259 -29 24 -111 29 -131 9z"/>
<path d="M4117 1833 c-11 -10 -8 -1356 3 -1373 7 -11 29 -15 92 -15 l83 0 3
698 2 697 -88 0 c-49 0 -92 -3 -95 -7z"/>
<path d="M4489 1824 c-17 -21 -27 -1313 -10 -1357 l11 -27 222 2 223 3 3 67
c3 66 3 67 -33 94 -32 24 -48 28 -133 33 l-97 6 0 200 0 200 93 3 92 3 0 82
c0 112 -6 119 -109 125 l-81 5 2 191 3 191 125 3 c84 2 127 7 132 15 4 7 8 49
8 95 l0 82 -219 0 c-188 0 -220 -2 -232 -16z"/>
<path d="M5020 1828 c0 -7 5 -42 10 -78 13 -84 46 -323 65 -475 8 -66 24 -181
35 -255 11 -74 27 -191 35 -260 26 -202 41 -299 47 -305 3 -4 30 -9 60 -12 41
-4 58 -2 70 10 16 17 17 23 73 412 47 329 46 325 60 325 14 0 20 -20 30 -105
3 -27 15 -111 25 -185 11 -74 29 -205 41 -290 12 -85 26 -158 33 -162 6 -4 39
-8 73 -8 l62 0 5 33 c3 17 12 75 20 127 8 52 20 142 26 200 6 58 13 113 16
122 3 9 13 83 24 165 19 151 35 267 71 523 11 80 19 163 17 185 l-3 40 -77 3
c-66 2 -77 0 -82 -15 -3 -10 -15 -101 -26 -203 -59 -539 -61 -552 -77 -557
-17 -6 -20 13 -43 222 -44 413 -60 516 -82 542 -6 7 -32 13 -59 13 -63 0 -64
-1 -89 -224 -36 -313 -61 -511 -66 -533 -7 -37 -34 -28 -34 10 0 18 -4 58 -10
88 -5 30 -16 119 -24 199 -29 279 -47 415 -58 438 -10 20 -19 22 -90 22 -56 0
-78 -4 -78 -12z"/>
<path d="M6057 1833 c-4 -3 -7 -314 -7 -690 l0 -683 28 -11 c16 -7 80 -9 162
-7 112 4 144 9 185 27 119 53 178 159 188 335 7 134 -29 260 -94 331 -22 23
-39 46 -39 50 0 4 15 24 33 45 67 78 81 123 81 246 0 91 -4 121 -24 174 -54
144 -145 190 -374 190 -73 0 -136 -3 -139 -7z m284 -200 c46 -28 69 -86 69
-178 0 -59 -5 -89 -20 -121 -23 -47 -73 -77 -118 -72 l-27 3 -3 180 c-1 98 0
185 2 192 7 19 63 16 97 -4z m8 -578 c49 -42 64 -98 59 -217 -6 -146 -39 -199
-126 -202 l-37 -1 -3 223 -2 222 39 0 c28 0 48 -8 70 -25z"/>
<path d="M6770 1821 c-13 -26 -14 -1340 0 -1361 8 -12 46 -16 223 -18 254 -4
243 -8 230 100 l-8 73 -132 3 -133 3 0 584 c0 355 -4 594 -10 609 -9 25 -13
26 -84 26 -64 0 -77 -3 -86 -19z"/>
<path d="M7497 1822 c-20 -22 -30 -69 -62 -292 -14 -96 -36 -247 -50 -335 -13
-88 -31 -209 -40 -270 -28 -193 -55 -359 -67 -409 -10 -44 -9 -51 8 -63 20
-15 159 -19 168 -5 3 5 13 67 22 138 9 71 22 134 29 139 7 6 53 9 107 7 l96
-3 12 -77 c7 -42 16 -101 20 -131 5 -29 14 -59 20 -65 6 -6 44 -12 85 -14 63
-4 76 -2 81 13 6 15 -11 145 -52 390 -8 50 -24 153 -34 230 -11 77 -28 199
-40 270 -11 72 -30 193 -41 270 -31 210 -43 225 -173 225 -57 0 -76 -4 -89
-18z m126 -434 c3 -24 17 -132 31 -241 15 -109 24 -202 21 -207 -8 -13 -128
-13 -141 0 -11 11 -9 33 21 235 8 55 17 127 20 160 9 78 14 95 29 95 8 0 16
-17 19 -42z"/>
<path d="M9899 1463 c-13 -17 -13 -17 5 -3 18 14 19 13 12 -5 -6 -16 -5 -18 5
-7 9 8 10 15 3 22 -8 8 -15 5 -25 -7z"/>
<path d="M9844 1435 c-4 -14 -4 -29 0 -32 3 -4 6 4 6 16 0 18 4 22 20 18 26
-7 26 -1 0 13 -17 9 -20 7 -26 -15z"/>
<path d="M9813 1415 c-6 -14 -7 -25 -2 -25 11 0 22 25 17 39 -1 6 -8 -1 -15
-14z"/>
<path d="M9930 1410 c0 -11 5 -20 11 -20 5 0 7 5 3 11 -3 6 0 15 7 20 11 7 10
9 -3 9 -11 0 -18 -8 -18 -20z"/>
<path d="M9875 1370 c27 -12 35 -12 35 0 0 6 -12 10 -27 9 -25 0 -26 -1 -8 -9z"/>
<path d="M10026 1307 c3 -10 9 -15 12 -12 3 3 0 11 -7 18 -10 9 -11 8 -5 -6z"/>
<path d="M9996 1295 c-3 -8 -1 -15 4 -15 6 0 10 7 10 15 0 8 -2 15 -4 15 -2 0
-6 -7 -10 -15z"/>
<path d="M9840 1290 c0 -5 5 -10 11 -10 5 0 7 5 4 10 -3 6 -8 10 -11 10 -2 0
-4 -4 -4 -10z"/>
<path d="M9868 1263 c7 -3 16 -2 19 1 4 3 -2 6 -13 5 -11 0 -14 -3 -6 -6z"/>
<path d="M10080 1255 c0 -8 4 -15 10 -15 5 0 7 7 4 15 -4 8 -8 15 -10 15 -2 0
-4 -7 -4 -15z"/>
<path d="M9645 1240 c-3 -5 -2 -10 4 -10 5 0 13 5 16 10 3 6 2 10 -4 10 -5 0
-13 -4 -16 -10z"/>
<path d="M10000 1200 c0 -5 4 -10 9 -10 6 0 13 5 16 10 3 6 -1 10 -9 10 -9 0
-16 -4 -16 -10z"/>
<path d="M10110 1200 c0 -5 5 -10 11 -10 5 0 7 5 4 10 -3 6 -8 10 -11 10 -2 0
-4 -4 -4 -10z"/>
<path d="M10153 1175 c0 -8 4 -12 9 -9 4 3 8 9 8 15 0 5 -4 9 -8 9 -5 0 -9 -7
-9 -15z"/>
<path d="M9710 1165 c-6 -8 -10 -19 -8 -26 2 -6 9 0 16 15 13 29 10 33 -8 11z"/>
<path d="M10045 1150 c3 -5 8 -10 11 -10 2 0 4 5 4 10 0 6 -5 10 -11 10 -5 0
-7 -4 -4 -10z"/>
<path d="M10186 1133 c-4 -5 -13 -8 -19 -8 -7 0 -13 -9 -15 -19 -4 -18 -3 -18
12 -4 8 9 21 18 28 21 7 2 10 7 7 11 -3 3 -9 3 -13 -1z"/>
<path d="M9494 1095 c-9 -22 1 -29 15 -11 8 10 9 16 1 21 -5 3 -13 -1 -16 -10z"/>
<path d="M9588 1100 c-10 -6 -14 -18 -11 -30 7 -25 19 -18 25 15 3 14 5 25 4
25 0 0 -8 -5 -18 -10z"/>
<path d="M10250 1101 c0 -5 -3 -18 -6 -28 -6 -16 -5 -16 9 2 19 23 21 35 7 35
-5 0 -10 -4 -10 -9z"/>
<path d="M10270 1050 c0 -5 5 -10 10 -10 6 0 10 5 10 10 0 6 -4 10 -10 10 -5
0 -10 -4 -10 -10z"/>
<path d="M9447 1035 c3 -8 9 -12 14 -9 12 7 11 11 -5 17 -10 4 -13 1 -9 -8z"/>
<path d="M10175 1030 c-3 -5 -1 -10 4 -10 6 0 11 5 11 10 0 6 -2 10 -4 10 -3
0 -8 -4 -11 -10z"/>
<path d="M9545 1020 c3 -5 8 -10 11 -10 2 0 4 5 4 10 0 6 -5 10 -11 10 -5 0
-7 -4 -4 -10z"/>
<path d="M10345 990 c3 -5 8 -10 11 -10 2 0 4 5 4 10 0 6 -5 10 -11 10 -5 0
-7 -4 -4 -10z"/>
<path d="M9358 983 c7 -3 16 -2 19 1 4 3 -2 6 -13 5 -11 0 -14 -3 -6 -6z"/>
<path d="M9479 958 c-11 -8 -10 -9 5 -4 10 4 25 1 32 -5 11 -9 14 -8 14 3 0
17 -31 21 -51 6z"/>
<path d="M10330 960 c-12 -8 -10 -10 8 -10 13 0 20 4 17 10 -7 12 -6 12 -25 0z"/>
<path d="M10205 950 c3 -5 8 -10 11 -10 2 0 4 5 4 10 0 6 -5 10 -11 10 -5 0
-7 -4 -4 -10z"/>
</g>
</svg>
